<?xml version="1.0" encoding="UTF-8"?>
<svg id="Calque_1" data-name="Calque 1" xmlns="http://www.w3.org/2000/svg" viewBox="0 0 278.97 87.18">
  <defs>
    <style>
      .cls-1 {
        fill: #7ac0a8;
      }

      .cls-1, .cls-2, .cls-3, .cls-4, .cls-5 {
        stroke-width: 0px;
      }

      .cls-2, .cls-6 {
        fill: none;
      }

      .cls-3 {
        fill: #1d1d1b;
      }

      .cls-4 {
        fill: #ea592e;
      }

      .cls-5 {
        fill: #79c0a8;
      }

      .cls-6 {
        stroke: #79c0a8;
        stroke-miterlimit: 10;
        stroke-width: .48px;
      }
    </style>
  </defs>
  <g>
    <line class="cls-6" x1="85.49" y1="77.54" x2="64.97" y2="77.54"/>
    <g>
      <path class="cls-5" d="M97.69,75.55h-4.56l-.72,4.11h5.26l-.12.72h-6.1l1.75-10.07h6.06l-.13.72h-5.21l-.66,3.8h4.57l-.12.72Z"/>
      <path class="cls-5" d="M101.9,79.82c.54.02,1.02-.13,1.44-.45.42-.32.69-.75.83-1.3h.78c-.14.74-.5,1.34-1.09,1.79s-1.26.67-2.01.65c-.6-.01-1.11-.18-1.52-.5-.41-.32-.71-.76-.89-1.32s-.24-1.2-.18-1.9l.03-.3c.06-.48.17-.95.36-1.41.18-.46.43-.86.73-1.21s.67-.63,1.09-.84.9-.3,1.43-.29c.77.02,1.37.28,1.83.77s.66,1.13.64,1.89h-.78c0-.58-.14-1.05-.45-1.4-.31-.36-.73-.54-1.27-.56-.57-.02-1.08.15-1.51.5-.44.35-.77.85-.99,1.49-.22.64-.33,1.32-.31,2.04.01.74.18,1.31.5,1.71.32.4.77.61,1.35.63Z"/>
      <path class="cls-5" d="M106.35,76.57c.08-.72.3-1.39.66-1.99.36-.6.81-1.06,1.34-1.37s1.12-.46,1.75-.45c.62,0,1.14.18,1.58.51.44.33.75.78.95,1.35.2.57.27,1.2.2,1.89v.13c-.15,1.18-.57,2.13-1.27,2.84-.7.71-1.54,1.06-2.51,1.04-.84-.01-1.51-.32-2.01-.93-.5-.6-.75-1.4-.74-2.39l.02-.39.02-.24ZM107.15,76.8c-.06.55-.02,1.05.12,1.52s.37.83.67,1.09c.31.26.69.4,1.15.42.5,0,.95-.12,1.37-.38s.75-.63,1.02-1.11.44-1.01.52-1.59l.02-.23c.08-.89-.05-1.62-.41-2.18s-.87-.85-1.55-.87c-.74-.02-1.38.26-1.91.85-.54.59-.87,1.38-.99,2.36v.12Z"/>
      <path class="cls-5" d="M116,72.9l-.25,1.28c.33-.46.72-.82,1.15-1.06.44-.25.9-.37,1.4-.36.72.02,1.24.27,1.57.75.33.48.44,1.15.35,2l-.82,4.87h-.82l.82-4.88c.03-.26.03-.52.01-.76-.08-.82-.53-1.24-1.34-1.26-.48,0-.94.13-1.35.43-.42.3-.79.75-1.11,1.34l-.89,5.13h-.82l1.3-7.48h.79Z"/>
      <path class="cls-5" d="M121.73,76.57c.08-.72.3-1.39.66-1.99.36-.6.81-1.06,1.34-1.37s1.12-.46,1.75-.45c.62,0,1.14.18,1.58.51.44.33.75.78.95,1.35.2.57.27,1.2.2,1.89v.13c-.15,1.18-.57,2.13-1.27,2.84-.7.71-1.54,1.06-2.51,1.04-.84-.01-1.51-.32-2.01-.93-.5-.6-.75-1.4-.74-2.39l.02-.39.02-.24ZM122.53,76.8c-.06.55-.02,1.05.12,1.52s.37.83.67,1.09c.31.26.69.4,1.15.42.5,0,.95-.12,1.37-.38s.75-.63,1.02-1.11.44-1.01.52-1.59l.02-.23c.08-.89-.05-1.62-.41-2.18s-.87-.85-1.55-.87c-.74-.02-1.38.26-1.91.85-.54.59-.87,1.38-.99,2.36v.12Z"/>
      <path class="cls-5" d="M131.35,72.9l-.24,1.22c.67-.92,1.52-1.37,2.54-1.36.53,0,.96.14,1.31.39.35.25.56.61.65,1.06.34-.47.74-.83,1.19-1.08s.95-.38,1.48-.37c.71.01,1.24.25,1.58.7.34.45.49,1.08.43,1.88v.16s-.84,4.88-.84,4.88h-.82l.82-4.88c.03-.27.03-.53,0-.77-.09-.82-.56-1.23-1.4-1.24-.56,0-1.08.17-1.55.55s-.77.84-.89,1.41l-.86,4.95h-.82l.83-4.95c.13-1.27-.33-1.92-1.4-1.96-.53,0-1.02.16-1.48.5s-.76.76-.92,1.27l-.89,5.13h-.82l1.3-7.48h.8Z"/>
      <path class="cls-5" d="M142.46,80.38h-.83l1.31-7.48h.82l-1.3,7.48ZM143.17,70.73c.02-.3.22-.49.59-.57.18.03.31.09.38.17s.13.21.15.4c-.05.18-.11.3-.2.38-.09.08-.22.14-.39.18-.37-.06-.55-.24-.53-.56Z"/>
      <path class="cls-5" d="M149.42,78.43c.07-.64-.31-1.1-1.16-1.38l-1.19-.35c-1.09-.37-1.61-.98-1.55-1.85.03-.62.32-1.13.86-1.52.54-.39,1.19-.58,1.93-.57.73,0,1.33.22,1.78.62.46.4.67.94.64,1.61h-.82c.03-.45-.11-.81-.42-1.09-.31-.28-.71-.43-1.22-.44-.53,0-.97.12-1.33.37-.36.25-.56.57-.61.98-.07.59.3,1.01,1.09,1.25l.86.25.46.16c1.04.39,1.53,1.03,1.47,1.92-.04.6-.3,1.09-.78,1.48-.48.38-1.1.6-1.86.65h-.28c-.5,0-.96-.1-1.36-.29-.41-.19-.72-.45-.93-.78-.22-.34-.31-.72-.28-1.16h.82c0,.48.16.85.48,1.12.32.27.76.41,1.31.42.55,0,1.02-.12,1.41-.38.39-.25.61-.59.66-1.01Z"/>
      <path class="cls-5" d="M154.68,80.52c-.6,0-1.12-.18-1.56-.5-.44-.33-.76-.77-.96-1.33-.21-.56-.28-1.17-.22-1.82l.02-.23c.06-.69.27-1.35.62-1.97s.78-1.1,1.31-1.43c.53-.33,1.1-.49,1.7-.47.56,0,1.03.16,1.41.46.38.3.67.71.84,1.23.17.53.23,1.11.17,1.74l-.06.5h-5.18l-.02.17c-.07.5-.03.98.11,1.44s.38.82.7,1.09c.33.27.72.41,1.17.42.44.01.84-.07,1.2-.26.36-.18.68-.43.98-.74l.48.39c-.34.43-.74.76-1.2.99-.46.22-.97.33-1.53.32ZM155.55,73.46c-.6-.02-1.14.19-1.61.64-.48.45-.83,1.08-1.07,1.89h4.34s.02-.1.02-.1c.08-.65-.03-1.22-.35-1.69-.31-.47-.76-.72-1.33-.74Z"/>
      <path class="cls-5" d="M163.45,73.59c-.18-.04-.36-.06-.55-.06-.53,0-1.01.16-1.45.48-.44.32-.73.73-.88,1.22l-.88,5.15h-.82l1.3-7.48h.81l-.25,1.19c.27-.44.6-.78.99-1.01s.81-.34,1.27-.33c.16,0,.35.03.57.1l-.11.75Z"/>
      <path class="cls-5" d="M170.11,80.52c-.43,0-.83-.1-1.21-.27-.38-.17-.69-.44-.92-.81l-.69,3.82h-.82l1.8-10.36h.76l-.19,1.06c.65-.83,1.46-1.22,2.44-1.2.7.02,1.25.28,1.64.78.39.5.59,1.21.61,2.14,0,.29,0,.57-.04.84l-.03.19c-.12.81-.33,1.5-.65,2.09-.32.59-.71,1.02-1.16,1.31s-.97.43-1.53.41ZM172.66,76.52l.04-.66c.01-.74-.12-1.31-.4-1.73s-.7-.64-1.25-.66c-.48,0-.92.11-1.32.36s-.73.6-1,1.07l-.62,3.6c.15.42.38.75.7.97.32.22.7.34,1.15.35.67.02,1.23-.23,1.7-.75.46-.52.78-1.25.94-2.19l.06-.37Z"/>
      <path class="cls-5" d="M174.86,76.57c.08-.72.3-1.39.66-1.99.36-.6.81-1.06,1.34-1.37s1.12-.46,1.75-.45c.62,0,1.14.18,1.58.51.44.33.75.78.95,1.35.2.57.27,1.2.2,1.89v.13c-.15,1.18-.57,2.13-1.27,2.84s-1.54,1.06-2.51,1.04c-.84-.01-1.51-.32-2.01-.93-.5-.6-.75-1.4-.74-2.39l.02-.39.02-.24ZM175.66,76.8c-.06.55-.02,1.05.12,1.52s.37.83.67,1.09c.31.26.69.4,1.15.42.5,0,.95-.12,1.37-.38.41-.26.75-.63,1.02-1.11s.44-1.01.52-1.59l.02-.23c.08-.89-.05-1.62-.41-2.18s-.87-.85-1.55-.87c-.74-.02-1.38.26-1.91.85-.54.59-.87,1.38-.99,2.36v.12Z"/>
      <path class="cls-5" d="M187.39,79.44c-.59.75-1.42,1.11-2.46,1.08-.71-.01-1.23-.27-1.58-.76-.35-.5-.47-1.18-.37-2.06l.8-4.79h.82l-.8,4.81c-.03.25-.03.5,0,.74.03.42.16.75.38.98.22.23.53.35.91.37.55.02,1.07-.1,1.54-.38.47-.28.78-.64.91-1.1l.93-5.42h.83l-1.3,7.48h-.8l.2-.94Z"/>
      <path class="cls-5" d="M194.61,73.59c-.18-.04-.36-.06-.55-.06-.53,0-1.01.16-1.45.48-.44.32-.73.73-.88,1.22l-.89,5.15h-.82l1.3-7.48h.81l-.25,1.19c.27-.44.6-.78.99-1.01.39-.23.81-.34,1.27-.33.16,0,.35.03.57.1l-.11.75Z"/>
      <path class="cls-5" d="M200.64,79.21l3.2-6.31h.87l-3.88,7.48h-.67l-1.56-7.48h.82l1.22,6.31Z"/>
      <path class="cls-5" d="M205.73,80.38h-.83l1.31-7.48h.82l-1.3,7.48ZM206.44,70.73c.02-.3.22-.49.59-.57.18.03.31.09.38.17s.12.21.15.4c-.05.18-.11.3-.2.38-.09.08-.22.14-.39.18-.37-.06-.55-.24-.53-.56Z"/>
      <path class="cls-5" d="M210.46,79.21l3.2-6.31h.87l-3.88,7.48h-.67l-1.56-7.48h.82l1.22,6.31Z"/>
      <path class="cls-5" d="M219.2,73.59c-.18-.04-.36-.06-.55-.06-.53,0-1.01.16-1.45.48-.44.32-.73.73-.88,1.22l-.88,5.15h-.82l1.3-7.48h.81l-.25,1.19c.27-.44.6-.78.99-1.01s.81-.34,1.27-.33c.16,0,.35.03.57.1l-.11.75Z"/>
      <path class="cls-5" d="M222.15,80.52c-.6,0-1.12-.18-1.56-.5-.44-.33-.76-.77-.96-1.33-.21-.56-.28-1.17-.22-1.82l.02-.23c.06-.69.27-1.35.62-1.97s.78-1.1,1.31-1.43c.53-.33,1.1-.49,1.7-.47.56,0,1.03.16,1.42.46.38.3.66.71.84,1.23.17.53.23,1.11.17,1.74l-.06.5h-5.18l-.02.17c-.07.5-.03.98.11,1.44s.38.82.7,1.09c.33.27.72.41,1.17.42.44.01.84-.07,1.2-.26.36-.18.68-.43.98-.74l.48.39c-.34.43-.74.76-1.2.99s-.97.33-1.53.32ZM223.03,73.46c-.6-.02-1.14.19-1.61.64-.48.45-.83,1.08-1.07,1.89h4.34s.02-.1.02-.1c.08-.65-.03-1.22-.35-1.69-.31-.47-.76-.72-1.33-.74Z"/>
      <path class="cls-5" d="M231.82,72.9l-.24,1.22c.67-.92,1.52-1.37,2.54-1.36.53,0,.96.14,1.31.39.35.25.56.61.65,1.06.34-.47.74-.83,1.19-1.08s.95-.38,1.48-.37c.71.01,1.24.25,1.58.7.34.45.48,1.08.42,1.88v.16s-.84,4.88-.84,4.88h-.82l.82-4.88c.03-.27.03-.53,0-.77-.09-.82-.56-1.23-1.4-1.24-.56,0-1.08.17-1.55.55s-.77.84-.89,1.41l-.86,4.95h-.82l.83-4.95c.13-1.27-.33-1.92-1.4-1.96-.53,0-1.02.16-1.48.5-.46.34-.76.76-.92,1.27l-.88,5.13h-.82l1.3-7.48h.79Z"/>
      <path class="cls-5" d="M242.93,80.38h-.83l1.31-7.48h.82l-1.3,7.48ZM243.63,70.73c.02-.3.22-.49.59-.57.18.03.31.09.38.17s.12.21.15.4c-.05.18-.11.3-.2.38-.09.08-.22.14-.39.18-.37-.06-.55-.24-.53-.56Z"/>
      <path class="cls-5" d="M248.12,80.52c-.6,0-1.12-.18-1.56-.5-.44-.33-.76-.77-.96-1.33-.21-.56-.28-1.17-.22-1.82l.02-.23c.06-.69.27-1.35.62-1.97s.78-1.1,1.31-1.43c.53-.33,1.1-.49,1.7-.47.56,0,1.03.16,1.42.46.38.3.66.71.84,1.23.17.53.23,1.11.17,1.74l-.06.5h-5.18l-.02.17c-.07.5-.03.98.11,1.44.14.46.38.82.7,1.09.33.27.72.41,1.17.42.44.01.84-.07,1.2-.26.36-.18.68-.43.98-.74l.48.39c-.34.43-.74.76-1.2.99-.46.22-.97.33-1.52.32ZM248.99,73.46c-.6-.02-1.14.19-1.61.64s-.83,1.08-1.07,1.89h4.34s.02-.1.02-.1c.08-.65-.03-1.22-.35-1.69-.31-.47-.76-.72-1.33-.74Z"/>
      <path class="cls-5" d="M257.28,79.44c-.59.75-1.42,1.11-2.46,1.08-.71-.01-1.23-.27-1.58-.76-.35-.5-.47-1.18-.37-2.06l.8-4.79h.82l-.79,4.81c-.03.25-.03.5,0,.74.03.42.16.75.38.98.22.23.53.35.91.37.55.02,1.07-.1,1.54-.38.47-.28.77-.64.91-1.1l.93-5.42h.83l-1.3,7.48h-.8l.2-.94Z"/>
      <path class="cls-5" d="M262.96,75.92l2.43-3.02h1.02l-3.07,3.71,1.96,3.77h-.91l-1.56-3.15-2.56,3.15h-1.01l3.19-3.85-1.87-3.63h.91l1.47,3.02Z"/>
    </g>
    <path class="cls-5" d="M277.07,74.09s-2.12,2.66-4.77,3.32c0,0-.55-1.6.51-2.9,0,0,.03.48.1.66,0,0,.07-.88.75-1.19,0,0-.13.34-.04.5,0,0,.34-.72.97-.8,0,0-.22.25-.2.45,0,0,.53-.62,1-.71,0,0-.12.19-.09.32,0,0,.6-.33,1.61-.65,1.01-.33,1.86-1.29,2.06-1.93,0,0-.13,2.96-1.33,4.66,0,0,.14.02.31-.04,0,0-.29.48-.72.61,0,0,.06.09.2.19,0,0-.28.13-.7.31,0,0,.14.16.19.23,0,0-.42.25-.74.31,0,0,.17.1.23.19,0,0-.65.36-1.11.35,0,0,.13.08.31.27,0,0-1.46.87-3.22-.37,0,0-1.55.71-1.81.5-.26-.21,1.28-.54,1.77-.7.5-.16,3.43-1.21,4.71-3.56Z"/>
  </g>
  <g>
    <path class="cls-3" d="M66.46,33.92c-.33,0-.65-.07-.95-.2-.3-.1-.57-.27-.8-.5-.23-.23-.42-.5-.55-.8-.13-.3-.2-.61-.2-.95s.07-.65.2-.95c.13-.3.31-.56.55-.8s.5-.42.8-.55c.3-.13.61-.2.95-.2s.65.07.95.2c.3.13.56.32.8.55.23.23.4.5.5.8.13.3.2.62.2.95s-.07.65-.2.95c-.1.3-.27.56-.5.8-.23.23-.5.4-.8.5-.3.13-.62.2-.95.2ZM66.46,63.91c-.7-.03-1.28-.28-1.74-.75-.47-.46-.71-1.05-.75-1.74v-20.08c.03-.7.28-1.28.75-1.74.46-.43,1.05-.66,1.74-.7.7.03,1.28.27,1.74.7.43.47.66,1.05.7,1.74v20.08c-.03.7-.27,1.28-.7,1.74-.47.47-1.05.71-1.74.75Z"/>
    <path class="cls-3" d="M88.93,39.1c.66.23,1.13.67,1.4,1.3.27.6.28,1.23.05,1.89l-7.47,19.93c-.2.5-.52.9-.95,1.2-.43.3-.9.45-1.4.45h-.05c-.53,0-1.01-.15-1.44-.45-.4-.3-.7-.7-.9-1.2l-7.47-19.93c-.23-.66-.22-1.3.05-1.89.27-.63.73-1.06,1.4-1.3.66-.23,1.3-.22,1.89.05.6.27,1.03.73,1.3,1.4l5.23,13.9,5.18-13.9c.27-.66.7-1.13,1.3-1.4.6-.27,1.23-.28,1.89-.05Z"/>
    <path class="cls-3" d="M103.33,38.85c3.16,0,6,1.06,8.52,3.19,2.52,2.13,3.85,5.23,3.99,9.32,0,.7-.23,1.28-.7,1.74-.46.43-1.06.67-1.79.7h-17.19c.56,1.53,1.48,2.76,2.74,3.69,1.26.93,2.74,1.41,4.43,1.45.6.03,1.38-.05,2.34-.25s2.04-.66,3.24-1.4c.6-.37,1.21-.42,1.84-.15.63.23,1.11.67,1.45,1.3.3.63.32,1.25.05,1.84-.23.56-.65,1.05-1.25,1.44-1.63,1.06-3.09,1.69-4.38,1.89-1.26.2-2.36.28-3.29.25-3.55-.1-6.51-1.33-8.87-3.69-2.33-2.36-3.54-5.3-3.64-8.82.1-3.55,1.31-6.51,3.64-8.87,2.36-2.32,5.31-3.54,8.87-3.64ZM103.33,43.78c-1.69.03-3.17.52-4.43,1.45-1.26.93-2.18,2.14-2.74,3.64h14.4c-.56-1.73-1.53-3.01-2.89-3.84-1.36-.83-2.81-1.25-4.34-1.25Z"/>
    <path class="cls-3" d="M135.17,58.93c.7.03,1.28.27,1.74.7.43.47.66,1.05.7,1.74-.03.7-.27,1.28-.7,1.74-.47.47-1.05.71-1.74.75h-15.5c-.5,0-.95-.13-1.35-.4-.4-.23-.7-.56-.9-1-.23-.46-.32-.93-.25-1.4.03-.46.2-.88.5-1.25l12.46-16.04h-10.56c-.7-.03-1.28-.28-1.74-.75-.43-.46-.67-1.05-.7-1.74.03-.7.27-1.28.7-1.74.46-.43,1.05-.66,1.74-.7h15.5c.5,0,.95.12,1.34.35.4.23.7.58.9,1.05.23.43.32.88.25,1.35-.03.43-.2.85-.5,1.25l-12.46,16.09h10.56Z"/>
    <path class="cls-3" d="M140.25,51.81c.03-.73.28-1.33.75-1.79s1.05-.7,1.74-.7h18.83c.7,0,1.28.23,1.74.7.43.47.66,1.06.7,1.79-.03.7-.27,1.28-.7,1.74-.47.43-1.05.67-1.74.7h-18.83c-.7-.03-1.28-.27-1.74-.7-.47-.46-.71-1.05-.75-1.74Z"/>
    <path class="cls-4" d="M186.99,58.88c.7,0,1.28.23,1.74.7.46.47.71,1.06.75,1.79-.03.7-.28,1.28-.75,1.74s-1.05.71-1.74.75h-17.34c-.7-.03-1.28-.28-1.74-.75-.47-.46-.71-1.05-.75-1.74v-29.8c.03-.73.28-1.33.75-1.79s1.05-.7,1.74-.7,1.28.23,1.74.7c.46.47.71,1.06.75,1.79v27.31h14.85Z"/>
    <path class="cls-3" d="M203.24,63.86c-3.52-.1-6.46-1.33-8.82-3.69s-3.59-5.3-3.69-8.82c.1-3.55,1.33-6.51,3.69-8.87,2.36-2.32,5.3-3.54,8.82-3.64,3.55.1,6.51,1.31,8.87,3.64,2.32,2.36,3.54,5.32,3.64,8.87-.1,3.52-1.31,6.46-3.64,8.82-2.36,2.36-5.32,3.59-8.87,3.69ZM203.24,43.78c-2.16.07-3.94.8-5.33,2.19s-2.18,3.22-2.24,5.38c.07,2.13.81,3.9,2.24,5.33,1.4,1.43,3.17,2.18,5.33,2.24,2.16-.07,3.95-.81,5.38-2.24,1.4-1.43,2.12-3.21,2.19-5.33-.07-2.16-.8-3.95-2.19-5.38-1.43-1.4-3.22-2.13-5.38-2.19Z"/>
    <path class="cls-3" d="M230.79,63.91c-3.52-.1-6.46-1.33-8.82-3.69-2.33-2.36-3.54-5.3-3.64-8.82.1-3.55,1.31-6.51,3.64-8.87,2.36-2.32,5.3-3.54,8.82-3.64,2.26.03,4.35.6,6.28,1.69,1.89,1.1,3.42,2.61,4.58,4.53.33.63.42,1.26.25,1.89-.17.63-.55,1.13-1.15,1.5-.63.33-1.26.4-1.89.2-.63-.17-1.13-.53-1.5-1.1-.7-1.2-1.61-2.13-2.74-2.79-1.16-.66-2.44-1-3.84-1-2.13.07-3.9.8-5.33,2.19-1.43,1.43-2.18,3.22-2.24,5.38.07,2.13.81,3.9,2.24,5.33,1.43,1.43,3.21,2.18,5.33,2.24,1.33,0,2.54-.32,3.64-.95,1.13-.6,2.04-1.45,2.74-2.54.4-.56.93-.91,1.59-1.05.63-.13,1.25-.03,1.84.3.56.4.91.91,1.05,1.54.13.67.02,1.29-.35,1.89-1.16,1.79-2.66,3.19-4.48,4.19-1.86,1.03-3.87,1.54-6.03,1.54Z"/>
    <path class="cls-3" d="M257.35,38.95c3.59.1,6.51,1.33,8.77,3.69,2.26,2.36,3.42,5.33,3.49,8.92v9.77c0,.73-.23,1.33-.7,1.79s-1.06.7-1.79.7c-.53,0-1.05-.23-1.54-.7-.53-.46-.81-1.06-.85-1.79-1.06.9-2.21,1.53-3.44,1.89-1.2.4-2.51.6-3.94.6-3.59-.07-6.56-1.23-8.92-3.49s-3.59-5.18-3.69-8.77c.1-3.59,1.33-6.56,3.69-8.92,2.36-2.36,5.33-3.59,8.92-3.69ZM257.35,58.93c2.13-.03,3.89-.75,5.28-2.14s2.06-3.11,2.09-5.23c-.03-2.16-.73-3.97-2.09-5.43-1.4-1.46-3.16-2.23-5.28-2.29-2.16.07-3.97.83-5.43,2.29-1.46,1.46-2.23,3.27-2.29,5.43.07,2.13.83,3.87,2.29,5.23,1.46,1.4,3.27,2.11,5.43,2.14Z"/>
    <path class="cls-3" d="M274.99,63.91c-.7-.03-1.28-.28-1.74-.75-.47-.46-.71-1.05-.75-1.74V28.99c.03-.7.28-1.28.75-1.74.46-.43,1.05-.66,1.74-.7.7.03,1.28.27,1.74.7.43.47.66,1.05.7,1.74v32.44c-.03.7-.27,1.28-.7,1.74-.47.47-1.05.71-1.74.75Z"/>
  </g>
  <g>
    <path class="cls-2" d="M39.49,18.07c-11.94,1.76-20.27,12.96-18.52,24.9,1.82,12.38,13.03,20.8,24.98,19.04,4.71-.69,8.92-2.91,12.11-6.06l-7.05-4.93c-2-1.49-2.4-4.19-.9-6.1,1.4-1.99,4.1-2.38,6.1-.9l6.76,4.8c1.51-3.69,2.14-7.89,1.5-12.24-1.76-11.94-13.04-20.26-24.99-18.5Z"/>
    <path class="cls-2" d="M73.04,37.13c-.04-.46-.09-.92-.15-1.39.06.46.11.93.15,1.39Z"/>
    <path class="cls-4" d="M12.52,44.22c-2.41-16.39,8.9-32.13,25.73-34.6,16.83-2.47,32.19,9.34,34.6,25.73.02.13.03.26.04.4.06.46.11.93.15,1.39.03.39.07.77.09,1.15.08-.77.13-1.54.13-2.3,0-.33,0-.66,0-.99-.02-.27-.03-.53-.04-.8,0-.2-.03-.4-.05-.61-.02-.19-.03-.39-.04-.59-.02-.25-.04-.5-.07-.75-.02-.18-.05-.36-.07-.55-.04-.28-.08-.56-.1-.84l-.03-.2c-.06-.34-.11-.69-.18-1.03-.02-.14-.05-.28-.08-.43-.02-.08-.04-.15-.05-.24-.06-.26-.11-.52-.18-.79-.07-.3-.13-.6-.21-.9-.07-.26-.14-.53-.22-.79-.08-.28-.15-.57-.24-.85-.08-.27-.17-.54-.26-.81-.08-.26-.18-.53-.27-.79-.09-.27-.2-.55-.3-.82-.05-.11-.09-.24-.13-.35-.41-1.01-.86-2.01-1.35-2.98-.08-.15-.16-.3-.25-.45-.14-.27-.29-.56-.44-.83-.11-.2-.24-.4-.35-.6-.17-.28-.34-.58-.52-.85-.1-.18-.22-.35-.33-.52-.2-.29-.39-.6-.6-.89-.08-.12-.16-.24-.25-.35-.5-.7-1.03-1.39-1.58-2.05-.25-.3-.5-.6-.76-.89-.16-.18-.32-.36-.48-.54-.11-.12-.22-.24-.33-.35-.53-.57-1.08-1.12-1.65-1.65-.33-.3-.66-.61-1-.9-.35-.3-.7-.61-1.06-.89l-.21-.16c-.41-.32-.81-.63-1.23-.94-.12-.09-.26-.18-.38-.26-.37-.26-.74-.52-1.12-.77-.16-.09-.32-.2-.48-.29-.35-.23-.71-.44-1.07-.65-.18-.11-.37-.21-.55-.31-.34-.2-.69-.39-1.04-.57-.21-.1-.41-.21-.61-.31-.34-.17-.68-.33-1.03-.49-.22-.1-.44-.2-.66-.29-.34-.15-.68-.29-1.03-.43-.23-.09-.46-.19-.69-.27-.35-.12-.7-.25-1.04-.37-.25-.09-.48-.16-.73-.25-.35-.1-.7-.21-1.05-.31-.26-.07-.5-.14-.76-.21-.35-.09-.71-.18-1.07-.26-.26-.07-.51-.12-.77-.18-.36-.08-.73-.14-1.1-.21-.26-.04-.51-.09-.77-.13-.39-.06-.78-.1-1.15-.15-.25-.03-.49-.07-.75-.09-.43-.05-.86-.08-1.3-.1-.21,0-.42-.04-.62-.05-.64-.03-1.3-.05-1.95-.05C25.25,0,15.08,5.09,8.37,13.1c-.75.88-1.46,1.81-2.11,2.76-.33.48-.64.97-.96,1.47-.61.98-1.17,2.01-1.68,3.06-.78,1.57-1.43,3.21-1.97,4.9-1.07,3.38-1.65,6.97-1.65,10.7,0,.67.04,1.35.09,2.04.03.22.06.44.09.67.06.45.11.92.2,1.38.05.26.1.53.15.8.06.26.09.52.16.79.04.16.08.33.13.49.07.28.14.56.22.84.12.42.25.84.39,1.27.09.27.18.56.27.83.15.44.32.88.49,1.32.1.26.2.52.3.79.04.09.07.16.1.25.17.42.36.82.55,1.23.09.21.18.42.27.62.32.67.65,1.34,1.01,2.02l.02.05c.1.19.21.37.31.56.27.5.55,1.01.84,1.52.16.27.33.54.49.81.18.29.35.6.53.89.08.12.15.24.23.36.19.29.38.59.57.88.26.39.51.78.78,1.16.2.29.4.6.61.89.26.38.53.76.8,1.14.21.29.43.59.64.89.27.38.56.75.84,1.13.22.28.43.57.64.84.33.42.66.83.99,1.24.19.24.37.48.57.72.47.58.95,1.15,1.43,1.72l.07.08c.1.12.22.26.33.38.42.49.84.98,1.27,1.47.1.11.2.23.3.34.45.51.91,1.01,1.37,1.51.13.15.26.29.4.44.44.49.9.97,1.34,1.44.15.15.3.31.44.46.45.46.88.92,1.33,1.36.14.14.27.28.42.43.41.41.8.81,1.2,1.2l.43.43c.39.38.77.75,1.15,1.12.13.12.26.26.4.38l.07.07c.39.37.78.74,1.15,1.1h0c.14.13.27.26.42.4l.19.18c.33.3.65.6.97.89h0c.12.12.26.24.38.36h0c.37.34.74.67,1.09.98l.04.04c.09.09.19.16.28.25.16.15.32.29.48.44.15.13.29.26.44.39h0c.09.08.19.17.27.25h0c.25.22.48.44.72.63.08.08.17.15.26.23h0c.09.09.19.16.27.25h0l.2.18c.16.13.32.26.46.39.08.07.14.12.21.18.09.08.18.14.26.22l.2.17c.09.09.2.16.29.25.09.09.19.16.27.24l.18.14h0c.09.09.19.17.28.24.11.1.23.19.34.28h0s.08.08.08.08h0c.22.18.4.33.57.47h0l.11.09.06.04c.13.11.25.2.35.28h0s.07.07.07.07h.02c.1.09.19.16.25.21l.04.03.08.06s5.15-3.98,11.59-10.17c1.61-1.54,3.3-3.23,5.02-5.03,1.14-1.19,2.28-2.44,3.43-3.72.46-.52.92-1.05,1.37-1.58-3.25,1.89-6.91,3.21-10.84,3.79-16.83,2.47-32.2-9.43-34.68-26.25Z"/>
  </g>
  <path class="cls-1" d="M59.45,19.1c.93.32,1.57.93,1.94,1.8.37.83.39,1.71.07,2.64l-16.04,41.86c-.28.69-.72,1.25-1.32,1.67-.6.42-1.25.62-1.94.62h-.07c-.74,0-1.41-.21-2.01-.62-.56-.42-.97-.97-1.25-1.67l-15.55-41.58c-.32-.93-.3-1.8.07-2.64.37-.88,1.02-1.48,1.94-1.81.93-.32,1.8-.3,2.64.07.83.37,1.43,1.02,1.81,1.94l12.43,33.18,12.84-33.46c.37-.93.97-1.57,1.8-1.94.83-.37,1.71-.39,2.64-.07Z"/>
</svg>